<svg width="48" height="48" viewBox="0 0 48 48" fill="none" xmlns="http://www.w3.org/2000/svg">
<rect width="48" height="48" rx="8" fill=""/>
<path d="M5.33594 22.6666V10.6666L10.6693 5.33325H21.3359L26.6693 10.6666V21.3333H37.3359L42.6693 26.6666V37.3333L37.3359 42.6666H26.6693L21.3359 37.3333V27.9999H10.6693L5.33594 22.6666Z" fill="#B2FCFF"/>
<path d="M33.3333 25.3333V24H30.6667V25.3333H30.1147L28 27.448V31.2187L30.1147 33.3333H32.7813L33.3333 33.8853V35.448L32.7813 36H31.2187L30.6667 35.448V34.6667H28V36.552L30.1147 38.6667H30.6667V40H33.3333V38.6667H33.8853L36 36.552V32.7813L33.8853 30.6667H31.2187L30.6667 30.1147V28.552L31.2187 28H32.7813L33.3333 28.552V29.3333H36V27.448L33.8853 25.3333H33.3333ZM22.276 22.276L20.3907 20.3907L19.448 21.3333H15.2187L14.6667 20.7813V20H18.6667V17.3333H14.6667V16H18.6667V13.3333H14.6667V12.552L15.2187 12H19.448L20.3907 12.9427L22.276 11.0573L20.552 9.33333H14.1147L12 11.448V13.3333H9.33333V16H12V17.3333H9.33333V20H12V21.8853L14.1147 24H20.552L22.276 22.276ZM13.3333 36V38.6667H8.552L6.66667 36.7813V30.6667H4V37.8853L7.448 41.3333H13.3333V44H15.2187L19.2187 40L15.2187 36H13.3333ZM34.6667 12V9.33333H38.1147L40 11.2187V18.6667H42.6667V10.1147L39.2187 6.66667H34.6667V4H32.7813L28.7813 8L32.7813 12H34.6667Z" fill="#3E64FF"/>
<path d="M14.6693 5.33325L8.0026 11.9999V21.3333L14.6693 27.9999H10.6693L5.33594 22.6666V10.6666L10.6693 5.33325H14.6693ZM30.6693 21.3333L24.0026 27.9999V35.9999L30.6693 42.6666H26.6693L21.3359 37.3333V26.6666L26.6693 21.3333H30.6693Z" fill="#5EDFFF"/>
<path d="M33.3359 21.3333L40.0026 27.9999V35.9999L33.3359 42.6666H37.3359L42.6693 37.3333V26.6666L37.3359 21.3333H33.3359ZM17.3359 5.33325L24.0026 11.9999V23.9999L26.6693 21.3333V10.6666L21.3359 5.33325H17.3359Z" fill="white"/>
<path d="M37.8853 20H28V10.1147L21.8853 4H10.1147L4 10.1147V23.2187L10.1147 29.3333H20V37.8853L26.1147 44H37.8853L44 37.8853V26.1147L37.8853 20ZM11.2187 26.6667L6.66667 22.1147V11.2187L11.2187 6.66667H20.7813L25.3333 11.2187V20.7813L20 26.1147V26.6667H11.2187ZM41.3333 36.7813L36.7813 41.3333H27.2187L22.6667 36.7813V27.2187L27.2187 22.6667H36.7813L41.3333 27.2187V36.7813Z" fill="#3E64FF"/>
</svg>
